<?xml version="1.0" standalone="no"?>
<!DOCTYPE svg PUBLIC "-//W3C//DTD SVG 20010904//EN"
 "http://www.w3.org/TR/2001/REC-SVG-20010904/DTD/svg10.dtd">
<svg version="1.0" xmlns="http://www.w3.org/2000/svg"
 width="512.000000pt" height="512.000000pt" viewBox="0 0 512.000000 512.000000"
 preserveAspectRatio="xMidYMid meet">
<metadata>
Created by potrace 1.11, written by Peter Selinger 2001-2013
</metadata>
<g transform="translate(0.000000,512.000000) scale(0.100000,-0.100000)"
fill="#000000" stroke="none">
<path d="M2512 5033 c-8 -17 -24 -114 -37 -221 -9 -77 -26 -99 -90 -119 -24
-7 -31 -15 -33 -40 -3 -28 2 -35 40 -59 47 -30 85 -69 94 -97 8 -25 1 -29 -26
-19 -36 13 -116 -4 -159 -35 -43 -30 -68 -85 -58 -125 5 -17 1 -27 -13 -36
-21 -13 -27 -51 -10 -68 6 -6 12 -31 15 -57 4 -39 2 -47 -15 -52 -12 -4 -43
-29 -70 -56 l-50 -50 -10 25 c-23 61 -126 82 -176 35 -76 -70 -73 -166 5 -232
l31 -25 -47 -23 c-62 -30 -151 -122 -188 -195 -27 -53 -30 -68 -30 -154 0 -85
3 -100 27 -141 l27 -45 -47 -13 c-91 -24 -150 -95 -153 -184 l-2 -45 -48 -5
c-86 -10 -129 -55 -130 -136 -1 -34 4 -57 17 -74 24 -31 65 -57 93 -57 42 0
17 -36 -66 -97 -69 -49 -79 -55 -168 -93 -281 -122 -446 -254 -547 -440 -55
-101 -67 -269 -25 -361 l25 -57 -47 -23 c-113 -57 -224 -218 -225 -325 -1 -44
-4 -54 -18 -54 -27 0 -61 -56 -54 -90 3 -19 -1 -40 -11 -59 -15 -25 -15 -32
-3 -57 7 -16 13 -47 11 -69 -2 -30 3 -45 17 -58 11 -11 18 -26 15 -37 -7 -25
25 -70 49 -70 17 0 16 -2 -7 -22 -44 -39 -47 -121 -5 -166 25 -26 103 -31 135
-8 19 13 23 10 59 -53 114 -195 187 -282 309 -369 77 -55 179 -106 237 -118
130 -27 313 -27 390 0 128 45 229 122 296 224 20 31 38 58 40 60 1 2 30 -6 65
-18 73 -24 198 -33 279 -19 124 20 259 120 310 228 l24 52 24 -48 c38 -73 70
-110 136 -157 88 -62 149 -80 276 -80 82 0 120 5 174 22 37 13 69 22 71 20 1
-2 19 -29 39 -60 72 -111 195 -198 326 -231 72 -19 275 -15 351 6 229 63 390
204 555 488 37 65 39 66 61 52 31 -21 97 -18 127 4 47 34 47 135 -1 173 -23
18 -24 20 -5 20 24 0 56 45 49 70 -2 10 4 25 15 34 15 13 19 28 17 59 -2 23 4
55 11 71 12 25 12 32 -3 57 -10 19 -14 40 -11 59 7 34 -27 90 -54 90 -14 0
-17 10 -18 53 -1 122 -106 267 -245 335 l-27 14 24 55 c43 96 32 261 -24 363
-99 182 -261 314 -532 433 -19 9 -55 25 -80 36 -41 18 -113 68 -168 116 -27
24 -29 45 -2 45 60 0 111 59 112 129 0 81 -44 127 -131 138 l-47 5 -3 46 c-4
90 -62 159 -153 183 l-47 13 26 43 c35 60 44 182 18 250 -39 104 -134 211
-220 248 -37 16 -38 18 -19 27 11 5 33 28 47 51 44 67 34 139 -27 196 -50 47
-153 26 -176 -35 -10 -24 -10 -24 -66 31 -31 30 -63 55 -72 55 -12 0 -13 9 -8
47 3 26 11 52 16 57 16 16 11 55 -9 68 -15 9 -18 19 -14 43 10 63 -53 135
-134 153 -23 5 -43 9 -45 7 -2 -1 -17 -5 -35 -8 -27 -5 -31 -4 -28 13 7 35 37
69 87 100 44 28 49 34 46 63 -2 25 -9 33 -33 40 -62 19 -82 43 -90 110 -14
119 -29 215 -37 230 -6 11 -20 17 -43 17 -23 0 -37 -6 -43 -17z m54 -929 c1
-56 6 -105 14 -119 18 -33 59 -48 127 -45 102 5 109 3 168 -52 31 -29 64 -58
73 -65 16 -11 16 -12 -1 -13 -10 0 -36 -9 -57 -20 -31 -16 -40 -26 -40 -47 0
-14 7 -34 15 -43 13 -15 10 -17 -38 -30 -56 -14 -115 -47 -159 -88 -22 -20
-28 -22 -28 -9 0 25 -40 47 -85 47 -45 0 -85 -22 -85 -47 0 -13 -6 -11 -27 9
-45 41 -104 74 -160 88 -48 13 -51 15 -38 30 8 9 15 29 15 43 0 21 -9 31 -40
47 -21 11 -46 20 -55 20 -15 0 88 104 124 124 8 5 55 9 103 8 83 -2 89 -1 119
26 32 28 32 30 34 128 3 118 3 119 13 110 4 -4 7 -50 8 -102z m-635 -503 c-23
-32 -28 -100 -9 -119 9 -9 5 -12 -19 -12 -18 0 -35 -4 -38 -10 -12 -20 -24
-10 -19 16 7 39 32 85 67 122 38 40 45 41 18 3z m1324 -94 c18 -48 15 -71 -7
-49 -7 7 -25 12 -41 12 -25 0 -28 2 -17 15 19 23 14 81 -11 118 -19 28 -17 28
18 -8 22 -23 48 -62 58 -88z m-1165 -5 c0 -10 6 -27 14 -37 11 -16 12 -21 1
-30 -17 -12 -21 -49 -11 -97 12 -58 3 -74 -43 -70 -37 4 -39 5 -32 30 12 42 4
102 -15 123 -14 16 -15 19 -2 19 24 0 68 39 68 61 0 10 5 19 10 19 6 0 10 -8
10 -18z m950 -1 c0 -18 36 -55 63 -64 9 -3 9 -7 0 -18 -16 -19 -21 -65 -13
-110 l7 -37 -39 -4 c-45 -4 -54 10 -42 75 9 52 6 79 -11 92 -11 9 -10 14 1 30
8 10 14 27 14 37 0 10 5 18 10 18 6 0 10 -9 10 -19z m-640 -116 c40 -21 51
-46 46 -101 -5 -50 -39 -96 -82 -108 -19 -6 -22 -1 -29 36 -4 24 -8 76 -9 115
-1 70 0 73 22 73 13 0 36 -7 52 -15z m383 -63 c-1 -42 -5 -94 -8 -115 -6 -33
-10 -37 -29 -31 -87 26 -115 161 -42 205 17 10 42 19 56 19 25 0 25 -1 23 -78z
m-851 -144 c2 -19 12 -24 55 -31 31 -5 54 -14 57 -24 6 -14 -22 -73 -34 -73
-3 0 -16 17 -30 38 -14 20 -40 51 -58 69 -22 21 -29 33 -20 36 23 9 27 7 30
-15z m1277 13 c11 -7 11 -10 -2 -17 -18 -11 -92 -103 -99 -123 -3 -10 -12 -3
-26 21 -30 49 -21 65 41 75 43 7 53 12 55 31 4 24 10 26 31 13z m-976 -19 c33
-16 35 -19 18 -29 -15 -10 -22 -7 -40 18 -25 34 -25 34 22 11z m666 -11 c-18
-25 -25 -28 -40 -18 -17 11 -16 13 14 28 46 24 50 23 26 -10z m-334 -84 c-20
-11 -29 -3 -21 19 5 13 9 14 22 3 14 -11 14 -13 -1 -22z m-813 -29 c-7 -7 -12
-21 -12 -31 0 -16 -3 -17 -15 -7 -28 23 -16 47 25 49 11 1 11 -2 2 -11z m580
-38 c69 -33 105 -65 134 -121 l17 -33 -32 31 c-59 59 -145 56 -210 -8 l-41
-39 0 35 c0 20 7 51 15 71 8 19 15 52 17 73 1 32 5 37 17 30 9 -4 46 -22 83
-39z m545 14 c1 -21 9 -54 18 -76 8 -21 15 -54 15 -73 l0 -35 -40 39 c-65 63
-153 66 -212 8 l-30 -31 20 40 c25 49 70 87 142 120 45 20 85 41 85 43 0 1 1
-15 2 -35z m519 13 c4 -11 0 -23 -7 -28 -10 -6 -15 -3 -18 9 -2 9 -8 22 -13
29 -7 9 -4 11 11 10 12 -1 24 -10 27 -20z m-1512 -139 c39 -81 134 -195 220
-265 92 -74 233 -153 275 -153 31 0 21 -10 -27 -27 -48 -17 -52 -16 -52 5 0
11 -9 27 -20 37 -17 15 -25 16 -69 5 -28 -6 -71 -9 -97 -5 -51 7 -154 40 -163
52 -3 5 -23 17 -44 28 -69 36 -93 -6 -58 -100 22 -58 28 -188 15 -288 l-7 -46
-23 18 c-29 23 -117 46 -141 37 -13 -5 -14 -4 -4 8 25 30 9 59 -49 87 -65 31
-81 48 -118 120 l-28 54 47 35 c98 72 162 193 157 298 l-4 62 41 0 c42 0 102
29 111 55 9 23 20 18 38 -17z m1383 12 c18 -27 65 -50 111 -52 l38 -1 -4 -54
c-5 -54 19 -152 43 -180 6 -6 28 -34 50 -61 22 -27 56 -60 76 -72 l36 -23 -28
-55 c-38 -73 -54 -90 -119 -121 -58 -28 -74 -57 -49 -87 10 -12 9 -13 -4 -8
-24 9 -112 -14 -141 -37 l-23 -18 -7 52 c-13 109 -7 224 15 282 23 61 22 93
-2 108 -18 11 -70 -5 -95 -30 -21 -22 -122 -55 -179 -59 -27 -2 -67 1 -88 7
-51 14 -77 4 -84 -32 -5 -28 -26 -39 -38 -19 -3 6 -17 10 -30 10 -13 0 -27 5
-30 10 -3 6 3 10 15 10 52 0 194 81 302 174 61 51 160 176 197 249 17 32 22
33 38 7z m-803 -195 c-19 -30 -55 -41 -81 -26 -15 9 -14 10 13 11 18 0 42 9
55 20 31 25 33 25 13 -5z m250 -15 c24 0 27 -3 16 -10 -25 -16 -48 -11 -75 15
-33 34 -32 42 1 16 15 -12 41 -21 58 -21z m-1349 -310 c-11 -18 -66 -41 -88
-38 -16 2 -7 9 33 25 66 26 63 25 55 13z m2484 -36 c2 -2 -7 -4 -20 -4 -22 0
-89 33 -89 45 0 5 101 -33 109 -41z m-2667 -71 c2 -21 16 -34 58 -59 30 -18
66 -44 80 -59 18 -20 11 -17 -28 12 -51 38 -133 70 -195 75 -27 3 -26 4 20 30
61 33 61 33 65 1z m2812 -3 c48 -24 48 -25 20 -28 -63 -5 -145 -36 -196 -75
-39 -29 -46 -32 -28 -12 14 15 50 41 80 59 43 25 56 38 58 60 2 15 7 26 10 24
4 -2 29 -14 56 -28z m-2439 -138 c-6 -4 -27 -23 -49 -42 -28 -26 -35 -29 -27
-13 12 24 58 63 74 63 7 0 7 -3 2 -8z m2039 -13 c14 -11 31 -30 37 -42 10 -18
7 -17 -17 6 -16 15 -38 34 -49 42 -11 8 -15 15 -9 15 6 0 23 -9 38 -21z
m-1664 -36 c-1 -5 -7 -19 -14 -32 l-13 -24 -5 32 c-4 25 -1 31 14 31 10 0 18
-3 18 -7z m1282 -24 l-5 -32 -13 24 c-18 32 -17 39 4 39 15 0 18 -6 14 -31z
m-2080 -12 c19 -8 47 -26 62 -40 l28 -26 -26 -44 c-31 -52 -32 -71 -7 -120
l19 -38 -22 -11 c-27 -12 -63 4 -111 49 -27 25 -30 33 -27 74 3 38 0 50 -18
67 -60 55 -139 28 -154 -54 -6 -29 28 -82 57 -89 21 -6 24 -11 21 -48 -1 -23
-3 -56 -3 -73 -1 -42 -29 -53 -53 -22 -78 97 -87 190 -28 276 33 48 106 106
145 115 30 7 79 0 117 -16z m3000 -1 c20 -10 55 -36 77 -59 84 -84 93 -184 26
-282 -21 -30 -41 -55 -44 -55 -22 1 -31 24 -35 85 -4 70 -3 70 27 85 63 30 66
124 6 156 -70 36 -149 -26 -128 -100 8 -26 5 -33 -24 -58 -53 -47 -86 -61
-112 -50 l-23 11 20 40 c23 48 19 95 -12 129 -24 26 -24 28 -2 50 67 67 147
85 224 48z m-2687 -26 c-10 -11 -22 -17 -26 -14 -15 9 -10 22 9 27 33 9 35 7
17 -13z m2254 4 c3 -3 0 -9 -5 -14 -7 -7 -17 -3 -30 11 -19 22 -19 22 6 14 14
-4 27 -9 29 -11z m-165 -144 c47 -73 80 -139 73 -147 -3 -2 -8 6 -12 19 -9 29
-80 136 -109 164 -13 12 -32 25 -44 28 -23 8 -26 14 -16 40 8 22 55 -23 108
-104z m-1846 88 c2 -9 -10 -20 -28 -28 -35 -15 -95 -88 -134 -165 -14 -27 -26
-46 -26 -41 0 16 63 136 72 136 4 0 8 6 8 13 0 18 81 108 94 104 6 -2 12 -11
14 -19z m186 -45 c-3 -16 -8 -68 -11 -117 -6 -97 7 -181 45 -286 3 -8 -14 2
-37 23 -35 32 -49 38 -75 35 l-32 -4 10 38 c8 29 6 53 -8 105 -30 116 -31 133
-7 149 11 8 21 23 21 32 0 12 9 18 26 20 14 1 35 9 47 17 28 20 28 20 21 -12z
m1431 -3 c18 0 25 -5 25 -19 0 -11 10 -27 21 -35 24 -16 23 -34 -7 -149 -14
-53 -15 -77 -8 -106 l10 -37 -32 4 c-26 3 -40 -3 -75 -35 -23 -21 -40 -31 -37
-23 38 105 51 189 45 286 -3 49 -8 102 -12 118 -6 29 -6 29 19 12 14 -9 37
-16 51 -16z m-1813 -232 c-8 -8 -9 -4 -5 13 4 13 8 18 11 10 2 -7 -1 -18 -6
-23z m2135 -30 c-3 -7 -5 -2 -5 12 0 14 2 19 5 13 2 -7 2 -19 0 -25z m-2328
-87 c0 -50 2 -95 6 -100 3 -6 2 -11 -3 -11 -17 0 -55 83 -56 122 0 31 5 44 23
59 13 10 25 19 27 19 2 0 4 -40 3 -89z m2565 30 c7 -26 4 -42 -24 -96 -18 -36
-34 -64 -34 -63 -1 2 0 52 2 111 l3 109 22 -15 c12 -8 26 -29 31 -46z m-3017
-93 c1 -32 24 -58 51 -58 8 0 28 15 46 33 40 42 63 38 118 -21 24 -25 69 -73
101 -106 31 -33 57 -64 57 -70 0 -5 10 -21 23 -35 18 -21 19 -23 2 -11 -11 8
-29 24 -40 35 -11 12 -27 24 -35 28 -8 4 -35 21 -60 37 -83 54 -166 89 -237
102 -62 10 -79 9 -139 -7 -38 -10 -81 -27 -96 -37 -45 -31 -24 5 25 44 65 52
137 92 177 97 3 1 6 -13 7 -31z m925 -27 c19 -25 18 -60 -2 -106 -29 -64 -60
-178 -61 -221 l0 -49 -21 45 c-14 30 -22 74 -26 131 -4 81 -3 89 28 150 18 35
38 74 44 86 9 19 12 20 15 5 2 -9 12 -28 23 -41z m1650 -55 c28 -56 30 -65 26
-145 -4 -57 -12 -101 -26 -131 l-21 -45 0 49 c-1 43 -32 157 -61 221 -21 47
-21 81 0 107 11 14 20 34 20 45 0 19 7 8 62 -101z m954 67 c24 -14 65 -45 91
-70 l48 -44 -40 20 c-98 48 -196 59 -295 33 -49 -13 -225 -112 -265 -148 -12
-11 -32 -28 -45 -39 l-25 -20 23 26 c13 15 24 36 25 48 1 11 7 21 13 21 7 0
43 34 81 76 89 100 92 103 111 113 23 12 63 -4 69 -28 10 -38 91 -34 94 4 1 8
3 20 4 25 1 6 3 14 4 19 1 12 49 -4 107 -36z m-2448 -18 c-3 -3 -9 2 -12 12
-6 14 -5 15 5 6 7 -7 10 -15 7 -18z m1265 10 c-3 -9 -8 -14 -10 -11 -3 3 -2 9
2 15 9 16 15 13 8 -4z m-1224 -79 c27 -43 27 -43 -9 -48 -24 -4 -30 -1 -25 9
3 8 5 28 5 44 0 37 4 36 29 -5z m1203 -12 c5 -39 5 -40 -23 -36 l-28 4 20 40
c11 22 22 38 23 36 2 -1 6 -21 8 -44z m-125 -134 c-9 -30 -18 -42 -40 -50 -54
-18 -64 -11 -27 18 19 15 43 37 54 49 11 13 20 23 21 23 1 0 -3 -18 -8 -40z
m-956 2 c8 -9 28 -27 44 -39 20 -15 25 -22 14 -23 -29 0 -79 22 -79 35 0 7 -3
20 -6 29 -8 21 8 20 27 -2z m-894 -209 c24 -23 47 -43 52 -45 5 -1 44 -34 87
-73 145 -131 159 -143 257 -208 143 -96 287 -137 477 -137 121 0 164 12 238
64 27 19 45 40 49 57 3 15 15 31 29 38 25 11 25 10 18 -27 -12 -68 -61 -133
-122 -162 -15 -7 -39 -19 -54 -26 -39 -20 -137 -28 -195 -16 -28 6 -81 25
-119 42 -37 17 -80 34 -95 37 -16 3 -34 12 -40 19 -7 8 -30 14 -56 14 -89 0
-240 70 -327 153 -25 23 -65 69 -90 102 -25 33 -49 65 -53 70 -5 6 -24 30 -42
55 -19 25 -51 63 -70 85 -41 45 -8 21 56 -42z m2783 54 c-21 -19 -52 -58 -186
-237 -99 -131 -284 -240 -407 -240 -26 0 -49 -6 -56 -14 -6 -7 -24 -16 -40
-19 -15 -3 -52 -17 -82 -30 -107 -48 -125 -52 -204 -52 -86 0 -139 16 -205 65
-58 41 -83 80 -94 142 -7 37 -7 38 18 27 14 -7 26 -23 29 -38 6 -30 68 -78
135 -104 80 -32 303 -19 442 25 65 20 145 62 218 115 75 53 108 80 222 182 36
33 79 70 95 84 17 14 52 46 79 71 27 25 52 46 55 46 3 0 -5 -11 -19 -23z
m-1934 -53 c15 -9 16 -14 7 -25 -17 -21 -24 -85 -13 -115 26 -67 106 -98 147
-58 22 22 23 25 8 53 -11 23 -12 58 -1 62 0 0 20 2 44 5 43 6 60 -9 23 -21
-39 -12 -59 -102 -36 -157 6 -16 1 -18 -44 -18 -108 0 -173 61 -177 165 -3 85
-20 113 -66 106 -9 -1 -4 21 12 46 l14 22 31 -27 c18 -15 40 -32 51 -38z
m1130 12 c1 -7 -8 -13 -19 -14 -25 -1 -47 -27 -48 -56 -1 -12 -2 -42 -3 -68
-3 -86 -76 -148 -175 -148 -47 0 -52 2 -45 18 4 9 8 37 9 62 2 39 -3 50 -32
79 -18 18 -33 35 -33 38 0 2 18 2 41 0 43 -4 63 -22 52 -47 -24 -57 -7 -92 43
-92 82 0 133 94 98 180 -12 31 -12 33 14 46 15 8 36 24 47 36 l20 22 14 -22
c9 -13 16 -28 17 -34z m-2299 36 c9 -6 7 -11 -6 -19 -16 -10 -20 -9 -24 8 -5
20 8 25 30 11z m3386 -11 c-4 -17 -8 -18 -24 -8 -13 8 -15 13 -6 19 22 14 35
9 30 -11z m-2818 -23 l19 -33 -31 25 c-17 14 -28 28 -26 33 8 14 19 7 38 -25z
m1110 21 c61 0 119 3 129 7 9 4 -5 -16 -32 -44 -31 -32 -58 -73 -73 -111 l-24
-60 -24 60 c-15 39 -40 78 -73 111 -27 28 -42 48 -32 44 9 -4 67 -7 129 -7z
m1148 4 c2 -5 -9 -19 -26 -33 l-31 -25 19 33 c19 32 30 39 38 25z m-2638 -158
c18 -27 36 -66 40 -85 7 -31 6 -33 -9 -21 -17 14 -70 25 -127 26 l-37 0 25 43
c25 42 33 107 17 134 -19 35 63 -54 91 -97z m3067 55 c-3 -40 1 -59 22 -94 23
-40 24 -44 7 -39 -24 6 -132 -16 -150 -30 -21 -18 -4 49 26 96 19 30 91 117
97 117 0 0 -1 -22 -2 -50z m-3302 -30 c-36 -28 -46 -24 -13 4 15 13 30 22 33
19 3 -2 -6 -13 -20 -23z m910 -4 c0 -5 -7 -3 -15 4 -8 7 -12 17 -9 22 7 10 24
-9 24 -26z m1649 8 c-15 -18 -22 -13 -13 10 3 9 10 13 16 10 5 -3 4 -12 -3
-20z m923 -14 c6 0 9 -3 6 -6 -10 -9 -45 14 -52 33 -6 14 -2 13 14 -4 11 -13
26 -23 32 -23z m-3746 -108 c-2 -1 -17 1 -35 4 -25 5 -29 9 -20 20 9 11 15 10
34 -4 13 -9 22 -18 21 -20z m4023 7 c-43 -12 -52 -9 -28 10 19 15 27 17 38 8
11 -10 9 -13 -10 -18z m-3819 -79 c0 -5 -4 -10 -10 -10 -5 0 -10 -6 -10 -14 0
-7 -6 -18 -13 -24 -9 -8 -18 -2 -35 24 l-22 34 45 0 c25 0 45 -4 45 -10z
m3638 -25 l-23 -34 -22 27 c-27 34 -22 42 28 42 l39 0 -22 -35z m-3382 -32
c-10 -3 -41 -18 -68 -34 -54 -32 -63 -34 -44 -7 19 26 67 48 101 47 19 -1 23
-3 11 -6z m3133 -13 c21 -10 41 -26 45 -35 7 -19 9 -19 -61 18 -29 15 -53 30
-53 32 0 11 33 4 69 -15z m-2770 -171 c68 -28 87 -32 171 -31 52 0 110 2 128
5 17 2 32 0 32 -5 0 -17 -74 -118 -87 -118 -6 0 -14 9 -18 19 -3 10 -19 24
-34 31 -24 9 -35 9 -60 -4 -17 -9 -31 -20 -31 -25 0 -5 -9 -7 -19 -4 -11 3
-34 -2 -51 -11 -25 -12 -35 -13 -51 -3 -14 8 -26 9 -47 1 -24 -9 -31 -8 -40 7
-6 9 -24 20 -41 24 -20 4 -33 16 -42 36 -6 17 -22 37 -34 45 -20 13 -22 18
-12 44 8 20 19 30 37 32 46 6 122 -11 199 -43z m2561 22 c0 -9 5 -22 11 -28 7
-7 3 -15 -14 -26 -13 -8 -30 -29 -36 -46 -9 -20 -22 -32 -42 -36 -17 -4 -35
-15 -41 -24 -9 -15 -16 -16 -40 -7 -21 8 -33 7 -47 -1 -16 -10 -26 -9 -50 3
-17 9 -40 13 -51 9 -11 -4 -20 -2 -20 4 0 6 -14 18 -31 27 -38 19 -80 6 -98
-32 l-11 -25 -23 28 c-38 46 -67 90 -67 102 0 7 10 9 28 4 15 -4 70 -6 122 -6
72 1 110 6 155 23 134 50 155 55 204 52 40 -3 51 -8 51 -21z m140 -81 c0 -5
-2 -10 -4 -10 -3 0 -8 5 -11 10 -3 6 -1 10 4 10 6 0 11 -4 11 -10z"/>
</g>
</svg>
